<?xml version="1.0" encoding="utf-8"?>
<svg version="1.1" id="icon-github" class="icon-github" xmlns="http://www.w3.org/2000/svg" xmlns:xlink="http://www.w3.org/1999/xlink" x="0px" y="0px" viewBox="0 0 100 100" style="enable-background:new 0 0 100 100;" xml:space="preserve">
	<path id="gh" class="gh" fill="#000000" d="m 72.95,12.056608 c 1.3,3 2.1,7.9 0.9,11.4 5.1,4.4 6.9,15 4.4,23.7 7.3,0.6 16,-0.3 21.7,2 -5.3,-0.7 -12.4,-2 -19.3,-1.6 -1.3,0.1 -3.1,0 -3.1,1.7 7.9,0.6 15.7,1.3 22.1,3.3 -6.4,-1 -14.1,-2.6 -22.1,-2.9 -3.3,6.4 -9.9,9.7 -19,10.3 1,2.1 2.9,3 3.3,6.4 0.7,5.1 -1.1,12.7 0.7,16 0.9,1.6 2.1,1.7 3.1,3.1 -2.3,2.7 -7.7,-0.3 -8.4,-3.1 -1.1,-4.7 1.7,-12.1 -1.3,-15.4 0.1,5.1 -1.3,12.6 0.3,17.1 0.6,1.9 2.3,2.6 1.7,4.1 -10.4,1 -6,-13.4 -7.7,-22 -1.6,0.1 -0.9,2.3 -0.9,3.3 0,8.4 1.7,19.9 -7.3,18.7 -0.3,-1.7 1.1,-2.3 1.7,-4 1.7,-4.7 -0.3,-11.7 0.4,-17.4 -3.4,2.6 0.4,11.7 -1.7,16.3 -1.3,2.7 -5.1,3.9 -8.1,2.6 0.4,-2 2.4,-1.7 3.3,-3.6 1.3,-2.6 0,-6.3 0.4,-10.1 -6.4,1.3 -11.3,-0.1 -13.7,-4.1 -1.1,-1.9 -1.3,-3.9 -2.7,-5.4 -1.3,-1.6 -3.4,-1.9 -4,-4 7.9,-1.9 8.1,8.1 15.3,8.4 2.1,0.1 3.3,-0.6 5.3,-1.1 0.6,-2.6 1.7,-4.4 3.6,-5.7 -8.9,-1.1 -16.1,-4 -19.4,-10.6 -8,0.4 -15.3,1.4 -22.1,3.1 6.1,-2.3 13.7,-3 21.9,-3.3 -0.4,-2.9 -4.7,-2.1 -7.3,-2 -4.9,0.3 -11,0.9 -14.9,1.6 5.6,-2 13.4,-1.7 21,-1.7 -2.3,-7.3 -1.6,-18.9 3.6,-23.1 -1.4,-3.6 -1,-9.6 0.9,-12.3 5.6,0.3 9,2.7 12.6,5 4.4,-1.3 9,-1.9 15,-1.6 2.6,0.1 5.1,1.3 7.1,1.1 1.9,-0.1 4,-2.3 5.7,-3.1 2.4,-0.6 4.4,-1 7,-1.1 z"/>
</svg>
