<?xml version="1.0" encoding="utf-8"?>
<!-- Generator: Adobe Illustrator 18.1.1, SVG Export Plug-In . SVG Version: 6.00 Build 0)  -->
<!DOCTYPE svg PUBLIC "-//W3C//DTD SVG 1.1//EN" "http://www.w3.org/Graphics/SVG/1.1/DTD/svg11.dtd">
<svg version="1.1" id="Layer_1" xmlns="http://www.w3.org/2000/svg" xmlns:xlink="http://www.w3.org/1999/xlink" x="0px" y="0px"
	 viewBox="0 0 600 600" enable-background="new 0 0 600 600" xml:space="preserve">
<path id="Github_2_" fill="#FFFFFF" d="M404.4,136.2c5.4,12.6,9,33,3.6,48c21.6,18.6,28.8,63,18.6,99.6c30.6,2.4,67.2-1.2,91.2,8.4
	c-22.2-3-52.2-8.4-81-6.6c-5.4,0.6-13.2,0-13.2,7.2c33,2.4,66,5.4,93,13.8c-27-4.2-59.4-10.8-93-12c-13.8,27-41.4,40.8-79.8,43.2
	c4.2,9,12,12.6,13.8,27c3,21.6-4.8,53.4,3,67.2c3.6,6.6,9,7.2,13.2,13.2c-9.6,11.4-32.4-1.2-35.4-13.2c-4.8-19.8,7.2-51-5.4-64.8
	c0.6,21.6-5.4,52.8,1.2,72c2.4,7.8,9.6,10.8,7.2,17.4c-43.8,4.2-25.2-56.4-32.4-92.4c-6.6,0.6-3.6,9.6-3.6,13.8
	c0,35.4,7.2,83.4-30.6,78.6c-1.2-7.2,4.8-9.6,7.2-16.8c7.2-19.8-1.2-49.2,1.8-73.2c-14.4,10.8,1.8,49.2-7.2,68.4
	c-5.4,11.4-21.6,16.2-34.2,10.8c1.8-8.4,10.2-7.2,13.8-15c5.4-10.8,0-26.4,1.8-42.6c-27,5.4-47.4-0.6-57.6-17.4
	c-4.8-7.8-5.4-16.2-11.4-22.8c-5.4-6.6-14.4-7.8-16.8-16.8c33-7.8,34.2,34.2,64.2,35.4c9,0.6,13.8-2.4,22.2-4.8
	c2.4-10.8,7.2-18.6,15-24c-37.2-4.8-67.8-16.8-81.6-44.4c-33.6,1.8-64.2,6-93,13.2c25.8-9.6,57.6-12.6,91.8-13.8
	c-1.8-12-19.8-9-30.6-8.4c-20.4,1.2-46.2,3.6-62.4,6.6c23.4-8.4,56.4-7.2,88.2-7.2c-9.6-30.6-6.6-79.2,15-97.2
	c-6-15-4.2-40.2,3.6-51.6c23.4,1.2,37.8,11.4,52.8,21c18.6-5.4,37.8-7.8,63-6.6c10.8,0.6,21.6,5.4,30,4.8c7.8-0.6,16.8-9.6,24-13.2
	C385.2,138.6,393.6,136.8,404.4,136.2z"/>
</svg>
