<?xml version="1.0" encoding="utf-8"?>
<!-- Generator: Adobe Illustrator 18.1.1, SVG Export Plug-In . SVG Version: 6.00 Build 0)  -->
<!DOCTYPE svg PUBLIC "-//W3C//DTD SVG 1.1//EN" "http://www.w3.org/Graphics/SVG/1.1/DTD/svg11.dtd">
<svg version="1.1" id="Layer_1" xmlns="http://www.w3.org/2000/svg" xmlns:xlink="http://www.w3.org/1999/xlink" x="0px" y="0px"
	 viewBox="0 0 600 600" enable-background="new 0 0 600 600" xml:space="preserve">
<path id="Google_x2B__2_" fill="#FFFFFF" d="M309,427.8c0-3.6-0.6-7.2-1.2-10.2c-0.6-3.6-1.2-6-2.4-9c-0.6-3-2.4-6-4.2-9
	s-3.6-5.4-5.4-7.8c-1.2-1.8-3.6-4.8-6.6-7.2c-3-3-5.4-4.8-7.2-6.6c-1.8-1.8-4.2-3.6-8.4-6.6c-3.6-3-6.6-4.8-7.8-5.4
	c-1.8-1.2-4.2-3-8.4-6s-6.6-4.8-7.8-5.4c-2.4-0.6-7.2-0.6-12.6-0.6c-9,0-18,0.6-27,1.8c-8.4,1.2-18,3-27,6.6
	c-9.6,3-17.4,6.6-25.2,11.4c-7.2,4.8-12.6,11.4-17.4,18.6c-4.8,7.8-6.6,16.8-6.6,27c0,11.4,2.4,21.6,9,30.6c6,9,13.8,16.2,23.4,21
	c9.6,4.8,19.8,9,30.6,11.4c10.2,2.4,21.6,3.6,31.8,3.6c9.6,0,19.2-1.2,28.2-3c9-2.4,17.4-5.4,25.2-9.6c7.8-4.2,14.4-10.8,19.2-18.6
	C307.2,447.6,309,438.6,309,427.8 M279,210c0-10.2-1.2-21-4.2-32.4s-6.6-22.2-12-33c-4.8-10.8-12-19.2-21-26.4
	c-9-6.6-18.6-10.2-30-10.2c-15.6,0-27.6,6-36.6,17.4c-8.4,11.4-12.6,25.8-12.6,41.4c0,7.8,1.2,16.2,3,25.2s4.8,17.4,9,26.4
	s8.4,16.8,13.8,23.4c5.4,7.2,12,12.6,19.8,17.4c7.8,4.2,16.2,6.6,24.6,6.6c16.2,0,28.2-4.8,35.4-15C275.4,240.6,279,226.8,279,210
	 M246,90.6h110.4l-34.2,19.8H288c12,7.8,21.6,18,27.6,31.8c6.6,13.8,9.6,27.6,9.6,42.6c0,12.6-1.8,23.4-6,33
	c-3.6,9.6-8.4,17.4-13.8,23.4c-5.4,6-11.4,11.4-16.8,16.2c-6,4.8-10.2,10.2-13.8,15.6c-4.2,5.4-6,10.8-6,16.8
	c0,4.2,1.2,8.4,4.2,12.6c3,4.2,6.6,8.4,10.8,12c4.8,3.6,9.6,7.8,15,12c5.4,4.2,10.8,9,16.2,13.8c5.4,5.4,10.2,10.8,14.4,16.8
	c4.8,6,8.4,13.2,10.8,21.6c3,8.4,4.2,17.4,4.2,27c0,27-11.4,50.4-35.4,71.4c-25.2,22.2-60.6,33-106.2,33c-9.6,0-19.8-1.2-30-2.4
	c-10.2-1.8-20.4-4.8-30.6-8.4c-10.2-3.6-19.2-9-27.6-14.4c-7.8-5.4-14.4-13.2-19.2-22.2c-5.4-9.6-7.8-19.2-7.8-30.6
	c0-10.2,3-21.6,9-34.2c5.4-10.8,13.8-19.8,24-28.2c10.8-7.8,22.8-13.8,36.6-18c13.8-4.2,27-7.2,39-9c12.6-1.8,25.2-3,37.8-3.6
	c-10.8-13.8-16.2-26.4-16.2-37.8c0-1.8,0-4.2,0.6-6c0.6-1.8,0.6-3.6,1.2-4.8c0.6-1.2,1.2-3,1.8-5.4c1.2-2.4,1.2-4.2,1.8-5.4
	c-6.6,1.2-12.6,1.2-17.4,1.2c-25.2,0-46.8-8.4-64.2-24.6c-18-16.2-27-37.2-27-61.8c0-23.4,7.8-45,24-63.6
	c15.6-18.6,35.4-30.6,58.8-35.4C214.2,91.8,230.4,90.6,246,90.6 M508.2,154.8v32.4h-64.8V252H411v-64.8h-64.2v-32.4H411V90.6h32.4
	v64.8h64.8V154.8z"/>
</svg>
