<?xml version="1.0" encoding="utf-8"?>
<svg version="1.1" id="icon-google-plus" class="icon-google-plus" xmlns="http://www.w3.org/2000/svg" xmlns:xlink="http://www.w3.org/1999/xlink" x="0px" y="0px" viewBox="0 0 100 100" style="enable-background:new 0 0 100 100;" xml:space="preserve">
	<path id="gp" class="gp" fill="#000000" d="m 52.5,80.3 c 0,-0.9 -0.1,-1.7 -0.3,-2.4 C 52.1,77 51.9,76.5 51.6,75.8 51.5,75.1 51,74.4 50.6,73.7 50.2,73 49.7,72.4 49.3,71.8 49,71.4 48.4,70.7 47.7,70.1 47,69.4 46.4,69 46,68.5 45.6,68 45,67.6 44,66.9 c -0.9,-0.7 -1.6,-1.1 -1.9,-1.3 -0.4,-0.3 -1,-0.7 -2,-1.4 -1,-0.7 -1.6,-1.1 -1.9,-1.3 -0.6,-0.1 -1.7,-0.1 -3,-0.1 -2.1,0 -4.3,0.1 -6.4,0.4 -2,0.3 -4.3,0.7 -6.4,1.6 -2.3,0.7 -4.1,1.6 -6,2.7 -1.7,1.1 -3,2.7 -4.1,4.4 -1.1,1.9 -1.6,4 -1.6,6.4 0,2.7 0.6,5.1 2.1,7.3 1.4,2.1 3.3,3.9 5.6,5 2.3,1.1 4.7,2.1 7.3,2.7 2.4,0.6 5.1,0.9 7.6,0.9 2.3,0 4.6,-0.3 6.7,-0.7 2.1,-0.6 4.1,-1.3 6,-2.3 1.9,-1 3.4,-2.6 4.6,-4.4 1.5,-1.8 1.9,-3.9 1.9,-6.5 M 45.4,28.5 c 0,-2.4 -0.3,-5 -1,-7.7 C 43.7,18.1 42.8,15.5 41.5,13 40.4,10.4 38.6,8.4 36.5,6.7 34.4,5.1 32.1,4.3 29.4,4.3 c -3.7,0 -6.6,1.4 -8.7,4.1 -2,2.7 -3,6.1 -3,9.8 0,1.9 0.3,3.9 0.7,6 0.4,2.1 1.1,4.1 2.1,6.3 1,2.2 2,4 3.3,5.6 1.3,1.7 2.9,3 4.7,4.1 1.9,1 3.9,1.6 5.8,1.6 3.9,0 6.7,-1.1 8.4,-3.6 1.9,-2.4 2.7,-5.7 2.7,-9.7 m -7.8,-28.4 26.2,0 -8.1,4.7 -8.1,0 c 2.9,1.9 5.1,4.3 6.6,7.6 1.6,3.3 2.3,6.6 2.3,10.1 0,3 -0.4,5.6 -1.4,7.8 -0.9,2.3 -2,4.1 -3.3,5.6 -1.3,1.4 -2.7,2.7 -4,3.9 -1.4,1.1 -2.4,2.4 -3.3,3.7 -1,1.3 -1.4,2.6 -1.4,4 0,1 0.3,2 1,3 0.7,1 1.6,2 2.6,2.9 1.1,0.9 2.3,1.9 3.6,2.9 1.3,1 2.6,2.1 3.9,3.3 1.3,1.3 2.4,2.6 3.4,4 1.1,1.4 2,3.1 2.6,5.1 0.7,2 1,4.1 1,6.4 0,6.4 -2.7,12 -8.4,17 -6,5.3 -14.4,7.8 -25.2,7.8 -2.3,0 -4.7,-0.3 -7.1,-0.6 -2.4,-0.4 -4.9,-1.1 -7.3,-2 C 10.8,96.4 8.6,95.2 6.6,93.9 4.7,92.6 3.2,90.8 2,88.6 0.7,86.3 0.1,84 0.1,81.3 c 0,-2.4 0.7,-5.1 2.1,-8.1 1.3,-2.6 3.3,-4.7 5.7,-6.7 2.6,-1.9 5.4,-3.3 8.7,-4.3 3.3,-1 6.4,-1.7 9.3,-2.1 3,-0.4 6,-0.7 9,-0.9 -2.6,-3.3 -3.9,-6.3 -3.9,-9 0,-0.4 0,-1 0.1,-1.4 0.1,-0.4 0.1,-0.9 0.3,-1.1 0.1,-0.3 0.3,-0.7 0.4,-1.3 0.3,-0.6 0.3,-1 0.4,-1.3 -1.6,0.3 -3,0.3 -4.1,0.3 -6,0 -11.1,-2 -15.3,-5.8 C 8.5,35.7 6.4,30.8 6.4,24.9 6.4,19.3 8.3,14.2 12.1,9.8 15.8,5.4 20.5,2.5 26.1,1.4 30,0.4 33.9,0.1 37.6,0.1 m 62.3,15.3 0,7.7 -15.4,0 0,15.4 -7.7,0 0,-15.4 -15.3,0 0,-7.7 15.3,0 0,-15.3 7.7,0 0,15.4 15.4,0 0,-0.1 z"/>
</svg>
