<?xml version="1.0" encoding="utf-8"?>
<!-- Generator: Adobe Illustrator 18.1.1, SVG Export Plug-In . SVG Version: 6.00 Build 0)  -->
<!DOCTYPE svg PUBLIC "-//W3C//DTD SVG 1.1//EN" "http://www.w3.org/Graphics/SVG/1.1/DTD/svg11.dtd">
<svg version="1.1" id="Layer_1" xmlns="http://www.w3.org/2000/svg" xmlns:xlink="http://www.w3.org/1999/xlink" x="0px" y="0px"
	 viewBox="0 0 600 600" enable-background="new 0 0 600 600" xml:space="preserve">
<path id="LinkedIn_1_" fill="#FFFFFF" d="M505.8,344.4v155.4h-90V354.6c0-36.6-13.2-61.2-45.6-61.2c-24.6,0-39.6,16.8-46.2,33
	c-2.4,6-3,13.8-3,22.2v151.2h-90c0,0,1.2-245.4,0-270.6h90v38.4l-0.6,0.6h0.6v-0.6c12-18.6,33.6-45,81-45
	C461.4,222.6,505.8,261,505.8,344.4z M136.8,98.4c-30.6,0-51,20.4-51,46.8c0,25.8,19.8,46.8,49.8,46.8h0.6c31.2,0,51-21,51-46.8
	C186.6,118.8,168,98.4,136.8,98.4z M91.2,499.8h90V229.2h-90C91.2,229.2,91.2,499.8,91.2,499.8z"/>
</svg>
