<?xml version="1.0" encoding="utf-8"?>
<svg version="1.1" id="icon-linkedin" class="icon-linkedin" xmlns="http://www.w3.org/2000/svg" xmlns:xlink="http://www.w3.org/1999/xlink" x="0px" y="0px" viewBox="0 0 100 100" style="enable-background:new 0 0 100 100;" xml:space="preserve">
	<path id="li" class="li" fill="#000000" d="m 100,60.8 0,37 -21.4,0 0,-34.6 c 0,-8.7 -3.1,-14.6 -10.9,-14.6 -5.9,0 -9.4,4 -11,7.9 -0.6,1.4 -0.7,3.3 -0.7,5.3 l 0,36 -21.4,0 c 0,0 0.3,-58.4 0,-64.4 l 21.4,0 0,9.1 -0.1,0.1 0.1,0 0,-0.1 c 2.9,-4.4 8,-10.7 19.3,-10.7 14.1,0 24.7,9.1 24.7,29 z M 12.1,2.2 C 4.8,2.2 0,7.1 0,13.3 0,19.4 4.7,24.4 11.9,24.4 l 0.1,0 c 7.4,0 12.1,-5 12.1,-11.1 C 24,7.1 19.6,2.2 12.1,2.2 Z m -10.8,95.6 21.4,0 0,-64.4 -21.4,0 0,64.4 z"/>
</svg>