<?xml version="1.0" encoding="utf-8"?>
<!-- Generator: Adobe Illustrator 18.1.1, SVG Export Plug-In . SVG Version: 6.00 Build 0)  -->
<!DOCTYPE svg PUBLIC "-//W3C//DTD SVG 1.1//EN" "http://www.w3.org/Graphics/SVG/1.1/DTD/svg11.dtd">
<svg version="1.1" id="Layer_1" xmlns="http://www.w3.org/2000/svg" xmlns:xlink="http://www.w3.org/1999/xlink" x="0px" y="0px"
	 viewBox="0 0 600 600" enable-background="new 0 0 600 600" xml:space="preserve">
<path id="Twitter_2_" fill="#FFFFFF" d="M510.6,168.6c-15.6,6.6-31.8,11.4-49.2,13.8c18-10.8,31.2-27.6,37.8-47.4
	c-16.8,9.6-34.8,16.8-54.6,21c-15.6-16.8-38.4-27-63-27c-47.4,0-86.4,38.4-86.4,86.4c0,6.6,0.6,13.2,2.4,19.8
	c-72-4.8-135.6-39-177.6-91.2c-7.2,12.6-11.4,27.6-11.4,43.2c0,30,15,56.4,38.4,72c-14.4-0.6-27.6-4.2-39-10.8c0,0.6,0,0.6,0,1.2
	c0,42,30,76.8,69,84.6c-7.2,1.8-15,3-22.8,3c-5.4,0-10.8-0.6-16.2-1.8c10.8,34.2,42.6,59.4,80.4,60c-30,22.8-67.2,36.6-107.4,36.6
	c-7.2,0-13.8-0.6-20.4-1.2c38.4,24.6,83.4,39,132,39C381,469.8,468,338.4,468,224.4c0-3.6,0-7.2,0-11.4
	C484.2,201,499.2,186,510.6,168.6z"/>
</svg>
