<?xml version="1.0" encoding="utf-8"?>
<svg version="1.1" id="icon-twitter" class="icon-twitter" xmlns="http://www.w3.org/2000/svg" xmlns:xlink="http://www.w3.org/1999/xlink" x="0px" y="0px" viewBox="0 0 100 100" style="enable-background:new 0 0 100 100;" xml:space="preserve">
	<path id="tw" class="tw" fill="#000000" d="m 100,18.85 c -3.7,1.6 -7.6,2.7 -11.7,3.3 4.3,-2.6 7.4,-6.6 9,-11.3 -4,2.3 -8.3,4 -13,5 -3.7,-4 -9.1,-6.4 -15,-6.4 -11.3,0 -20.6,9.1 -20.6,20.6 0,1.6 0.1,3.1 0.6,4.7 -17.1,-1.1 -32.2,-9.3 -42.2,-21.7 -1.7,3 -2.7,6.6 -2.7,10.3 0,7.1 3.6,13.4 9.1,17.1 -3.4,-0.1 -6.6,-1 -9.3,-2.6 0,0.1 0,0.1 0,0.3 0,10 7.1,18.3 16.4,20.1 -1.7,0.4 -3.6,0.7 -5.4,0.7 -1.3,0 -2.6,-0.1 -3.9,-0.4 2.6,8.1 10.1,14.1 19.1,14.3 -7.1,5.4 -16,8.7 -25.5,8.7 -1.7,0 -3.3,-0.1 -4.9,-0.3 9.1,5.9 19.9,9.3 31.3,9.3 37.6,0 58.3,-31.2 58.3,-58.3 0,-0.9 0,-1.7 0,-2.7 4.1,-3 7.7,-6.6 10.4,-10.7 z"/>
</svg>